<svg width="168" height="204" viewBox="0 0 168 204" fill="none" xmlns="http://www.w3.org/2000/svg">
<path d="M82.3 3L48 39H116.6L82.3 3Z" stroke="#015154" stroke-width="5" stroke-linecap="round" stroke-linejoin="round"/>
<path d="M111 39H57V66H111V39Z" stroke="#015154" stroke-width="5" stroke-linecap="round" stroke-linejoin="round"/>
<path d="M48 183L57 84H111L120 183" stroke="#015154" stroke-width="5" stroke-linecap="round" stroke-linejoin="round"/>
<path d="M72 66H48V84H72V66Z" stroke="#015154" stroke-width="5" stroke-linecap="round" stroke-linejoin="round"/>
<path d="M120 66H96V84H120V66Z" stroke="#015154" stroke-width="5" stroke-linecap="round" stroke-linejoin="round"/>
<path d="M93 39H75V66H93V39Z" stroke="#015154" stroke-width="5" stroke-linecap="round" stroke-linejoin="round"/>
<path d="M66 183C66 192.94 57.94 201 48 201C38.06 201 30 192.94 30 183" stroke="#015154" stroke-width="5" stroke-linecap="round" stroke-linejoin="round"/>
<path d="M102 183C102 192.94 93.94 201 84 201C74.06 201 66 192.94 66 183" stroke="#015154" stroke-width="5" stroke-linecap="round" stroke-linejoin="round"/>
<path d="M138 183C138 192.94 129.94 201 120 201C110.06 201 102 192.94 102 183" stroke="#015154" stroke-width="5" stroke-linecap="round" stroke-linejoin="round"/>
<path d="M138 42.86L159.6 30" stroke="#015154" stroke-width="5" stroke-linecap="round" stroke-linejoin="round"/>
<path d="M138 62.14L159.6 75" stroke="#015154" stroke-width="5" stroke-linecap="round" stroke-linejoin="round"/>
<path d="M138 52.5H165" stroke="#015154" stroke-width="5" stroke-linecap="round" stroke-linejoin="round"/>
<path d="M30 42.86L8.40002 30" stroke="#015154" stroke-width="5" stroke-linecap="round" stroke-linejoin="round"/>
<path d="M30 62.14L8.40002 75" stroke="#015154" stroke-width="5" stroke-linecap="round" stroke-linejoin="round"/>
<path d="M30 52.5H3" stroke="#015154" stroke-width="5" stroke-linecap="round" stroke-linejoin="round"/>
<path d="M54.75 111.75L111 93" stroke="#015154" stroke-width="5" stroke-linecap="round" stroke-linejoin="round"/>
<path d="M57 138L111 120" stroke="#015154" stroke-width="5" stroke-linecap="round" stroke-linejoin="round"/>
<path d="M51.9399 139.69L113.74 119.09" stroke="#015154" stroke-width="5" stroke-linecap="round" stroke-linejoin="round"/>
<path d="M57 165L111 147" stroke="#015154" stroke-width="5" stroke-linecap="round" stroke-linejoin="round"/>
<path d="M51.4301 166.86L116.57 145.14" stroke="#015154" stroke-width="5" stroke-linecap="round" stroke-linejoin="round"/>
</svg>
